# xmcd
#
# Track frame offsets:
#	150
#	14950
#	23555
#	35991
#	50591
#	66542
#	77994
#	91588
#	100734
#
# Disc length: 1534 seconds
#
# Revision: 1
# Processed by: cddbd v1.5.2PL0 Copyright (c) Steve Scherf et al.
# Submitted via: CDmax 2.0
#
DISCID=7705fc09
DTITLE=Andy and The Blues Shakers - Is everything alright ?
DYEAR=1997
DGENRE=Blues
TTITLE0=You ain't like you used to be
TTITLE1=Always Swing
TTITLE2=She's gone
TTITLE3=Georgia Swing
TTITLE4=Talk to your daughter
TTITLE5=Too many drivers
TTITLE6=Is everything alright ?
TTITLE7=Blues Shake Boogie
TTITLE8=Just like I treat you
EXTD=
EXTT0=
EXTT1=
EXTT2=
EXTT3=
EXTT4=
EXTT5=
EXTT6=
EXTT7=
EXTT8=
PLAYORDER=
